<?xml version="1.0" encoding="UTF-8"?>
<svg version="1.1" xmlns="http://www.w3.org/2000/svg" width="256" height="256">
<path d="M0 0 C29.04 0 58.08 0 88 0 C88 3.3 88 6.6 88 10 C97.57 10 107.14 10 117 10 C117 15.28 117 20.56 117 26 C121.62 26 126.24 26 131 26 C131 30.29 131 34.58 131 39 C132.60681641 38.98259766 132.60681641 38.98259766 134.24609375 38.96484375 C135.64322743 38.95546701 137.04036299 38.94636669 138.4375 38.9375 C139.14455078 38.92912109 139.85160156 38.92074219 140.58007812 38.91210938 C142.38693559 38.90346412 144.19387603 38.94779989 146 39 C147 40 147 40 147.09765625 43.16015625 C147.08025391 45.09181641 147.08025391 45.09181641 147.0625 47.0625 C147.05347656 48.35285156 147.04445312 49.64320312 147.03515625 50.97265625 C147.01775391 52.47119141 147.01775391 52.47119141 147 54 C151.29 54.33 155.58 54.66 160 55 C160 63.58 160 72.16 160 81 C163.96 81 167.92 81 172 81 C172 110.37 172 139.74 172 170 C168.04 170 164.08 170 160 170 C160 179.57 160 189.14 160 199 C155.71 199 151.42 199 147 199 C147 203.29 147 207.58 147 212 C141.72 212 136.44 212 131 212 C131 217.28 131 222.56 131 228 C126.38 228 121.76 228 117 228 C117 232.29 117 236.58 117 241 C107.43 241 97.86 241 88 241 C88 245.95 88 250.9 88 256 C58.96 256 29.92 256 0 256 C0 251.05 0 246.1 0 241 C-9.57 241 -19.14 241 -29 241 C-29 236.71 -29 232.42 -29 228 C-33.29 228 -37.58 228 -42 228 C-42 222.72 -42 217.44 -42 212 C-47.28 212 -52.56 212 -58 212 C-58 207.71 -58 203.42 -58 199 C-62.29 199 -66.58 199 -71 199 C-72.00012445 193.19769071 -72.15066179 187.56832643 -72.125 181.6875 C-72.12886719 180.78193359 -72.13273437 179.87636719 -72.13671875 178.94335938 C-72.13542969 178.07904297 -72.13414063 177.21472656 -72.1328125 176.32421875 C-72.13168457 175.54135498 -72.13055664 174.75849121 -72.12939453 173.9519043 C-72 172 -72 172 -71 170 C-75.29 170 -79.58 170 -84 170 C-84 140.63 -84 111.26 -84 81 C-78.06 80.505 -78.06 80.505 -72 80 C-72.01740234 77.41865234 -72.01740234 77.41865234 -72.03515625 74.78515625 C-72.04453234 72.54427191 -72.05363273 70.30338641 -72.0625 68.0625 C-72.07087891 66.92619141 -72.07925781 65.78988281 -72.08789062 64.61914062 C-72.09111328 63.53955078 -72.09433594 62.45996094 -72.09765625 61.34765625 C-72.10289307 60.34742432 -72.10812988 59.34719238 -72.11352539 58.31665039 C-72 56 -72 56 -71 55 C-66.66469082 54.85606543 -62.33842269 54.95787939 -58 55 C-58 49.72 -58 44.44 -58 39 C-52.72 39 -47.44 39 -42 39 C-42 34.71 -42 30.42 -42 26 C-37.71 26 -33.42 26 -29 26 C-29 20.72 -29 15.44 -29 10 C-19.43 10 -9.86 10 0 10 C0 6.7 0 3.4 0 0 Z " fill="#F63526" transform="translate(84,0)"/>
<path d="M0 0 C29.04 0 58.08 0 88 0 C88 3.3 88 6.6 88 10 C97.57 10 107.14 10 117 10 C117 15.28 117 20.56 117 26 C121.62 26 126.24 26 131 26 C131 30.29 131 34.58 131 39 C132.60681641 38.98259766 132.60681641 38.98259766 134.24609375 38.96484375 C135.64322743 38.95546701 137.04036299 38.94636669 138.4375 38.9375 C139.14455078 38.92912109 139.85160156 38.92074219 140.58007812 38.91210938 C142.38693559 38.90346412 144.19387603 38.94779989 146 39 C147 40 147 40 147.09765625 43.16015625 C147.08025391 45.09181641 147.08025391 45.09181641 147.0625 47.0625 C147.05347656 48.35285156 147.04445312 49.64320312 147.03515625 50.97265625 C147.01775391 52.47119141 147.01775391 52.47119141 147 54 C151.29 54.33 155.58 54.66 160 55 C160 63.58 160 72.16 160 81 C163.96 81 167.92 81 172 81 C172 110.37 172 139.74 172 170 C168.04 170 164.08 170 160 170 C160 179.57 160 189.14 160 199 C155.71 199 151.42 199 147 199 C147 203.29 147 207.58 147 212 C141.72 212 136.44 212 131 212 C131 217.28 131 222.56 131 228 C126.38 228 121.76 228 117 228 C117 232.29 117 236.58 117 241 C107.43 241 97.86 241 88 241 C88 245.95 88 250.9 88 256 C58.96 256 29.92 256 0 256 C0 251.05 0 246.1 0 241 C-9.57 241 -19.14 241 -29 241 C-29 236.71 -29 232.42 -29 228 C-33.29 228 -37.58 228 -42 228 C-42 222.72 -42 217.44 -42 212 C-47.28 212 -52.56 212 -58 212 C-58 207.71 -58 203.42 -58 199 C-62.29 199 -66.58 199 -71 199 C-72.00012445 193.19769071 -72.15066179 187.56832643 -72.125 181.6875 C-72.12886719 180.78193359 -72.13273437 179.87636719 -72.13671875 178.94335938 C-72.13542969 178.07904297 -72.13414063 177.21472656 -72.1328125 176.32421875 C-72.13168457 175.54135498 -72.13055664 174.75849121 -72.12939453 173.9519043 C-72 172 -72 172 -71 170 C-75.29 170 -79.58 170 -84 170 C-84 140.63 -84 111.26 -84 81 C-78.06 80.505 -78.06 80.505 -72 80 C-72.01740234 77.41865234 -72.01740234 77.41865234 -72.03515625 74.78515625 C-72.04453234 72.54427191 -72.05363273 70.30338641 -72.0625 68.0625 C-72.07087891 66.92619141 -72.07925781 65.78988281 -72.08789062 64.61914062 C-72.09111328 63.53955078 -72.09433594 62.45996094 -72.09765625 61.34765625 C-72.10289307 60.34742432 -72.10812988 59.34719238 -72.11352539 58.31665039 C-72 56 -72 56 -71 55 C-66.66469082 54.85606543 -62.33842269 54.95787939 -58 55 C-58 49.72 -58 44.44 -58 39 C-52.72 39 -47.44 39 -42 39 C-42 34.71 -42 30.42 -42 26 C-37.71 26 -33.42 26 -29 26 C-29 20.72 -29 15.44 -29 10 C-19.43 10 -9.86 10 0 10 C0 6.7 0 3.4 0 0 Z M1 11 C1 16.28 1 21.56 1 27 C-8.57 27 -18.14 27 -28 27 C-28 36.57 -28 46.14 -28 56 C-37.57 56 -47.14 56 -57 56 C-57 64.58 -57 73.16 -57 82 C-61.62 82 -66.24 82 -71 82 C-71 101.14 -71 120.28 -71 140 C-66.38 140 -61.76 140 -57 140 C-57 145.28 -57 150.56 -57 156 C-42.48 156 -27.96 156 -13 156 C-13 150.72 -13 145.44 -13 140 C1.19 140 15.38 140 30 140 C30 145.28 30 150.56 30 156 C35.28 156 40.56 156 46 156 C46 160.29 46 164.58 46 169 C64.15 169 82.3 169 101 169 C101 164.71 101 160.42 101 156 C115.85 156 130.7 156 146 156 C146 150.72 146 145.44 146 140 C150.29 140 154.58 140 159 140 C159 120.86 159 101.72 159 82 C154.71 82 150.42 82 146 82 C146 73.42 146 64.84 146 56 C140.72 56 135.44 56 130 56 C130 50.72 130 45.44 130 40 C120.43 40 110.86 40 101 40 C101 35.71 101 31.42 101 27 C96.71 27 92.42 27 88 27 C88 21.72 88 16.44 88 11 C59.29 11 30.58 11 1 11 Z " fill="#2E2E2E" transform="translate(84,0)"/>
<path d="M0 0 C9.57 0 19.14 0 29 0 C29 13.86 29 27.72 29 42 C57.71 42 86.42 42 116 42 C116 37.71 116 33.42 116 29 C125.57 29 135.14 29 145 29 C145 33.29 145 37.58 145 42 C139.72 42 134.44 42 129 42 C129 46.29 129 50.58 129 55 C124.38 55 119.76 55 115 55 C115 60.28 115 65.56 115 71 C105.43 71 95.86 71 86 71 C86 75.29 86 79.58 86 84 C57.62 84 29.24 84 0 84 C0 79.71 0 75.42 0 71 C-9.57 71 -19.14 71 -29 71 C-29 65.72 -29 60.44 -29 55 C-33.29 55 -37.58 55 -42 55 C-42 50.71 -42 46.42 -42 42 C-47.28 42 -52.56 42 -58 42 C-58 37.71 -58 33.42 -58 29 C-48.43 29 -38.86 29 -29 29 C-29 33.29 -29 37.58 -29 42 C-23.72 42 -18.44 42 -13 42 C-13 46.29 -13 50.58 -13 55 C0.53 55 14.06 55 28 55 C28 50.71 28 46.42 28 42 C18.76 42 9.52 42 0 42 C0 37.71 0 33.42 0 29 C-4.29 29 -8.58 29 -13 29 C-13 23.72 -13 18.44 -13 13 C-8.71 13 -4.42 13 0 13 C0 8.71 0 4.42 0 0 Z " fill="#D7C7EF" transform="translate(85,156)"/>
<path d="M0 0 C4.29 0 8.58 0 13 0 C13 5.28 13 10.56 13 16 C18.28 16 23.56 16 29 16 C29 24.58 29 33.16 29 42 C33.29 42 37.58 42 42 42 C42 61.14 42 80.28 42 100 C37.71 100 33.42 100 29 100 C29 105.28 29 110.56 29 116 C14.15 116 -0.7 116 -16 116 C-16 120.29 -16 124.58 -16 129 C-34.15 129 -52.3 129 -71 129 C-71 124.71 -71 120.42 -71 116 C-66.71 116 -62.42 116 -58 116 C-58 110.72 -58 105.44 -58 100 C-48.43 100 -38.86 100 -29 100 C-29 95.71 -29 91.42 -29 87 C-24.71 87 -20.42 87 -16 87 C-16 77.43 -16 67.86 -16 58 C-10.72 58 -5.44 58 0 58 C0 38.86 0 19.72 0 0 Z " fill="#C02D18" transform="translate(201,40)"/>
<path d="M0 0 C4.29 0 8.58 0 13 0 C13 9.57 13 19.14 13 29 C8.71 29 4.42 29 0 29 C0 34.28 0 39.56 0 45 C-9.57 45 -19.14 45 -29 45 C-29 49.29 -29 53.58 -29 58 C-57.71 58 -86.42 58 -116 58 C-116 44.14 -116 30.28 -116 16 C-110.72 16 -105.44 16 -100 16 C-100 20.29 -100 24.58 -100 29 C-81.85 29 -63.7 29 -45 29 C-45 24.71 -45 20.42 -45 16 C-30.15 16 -15.3 16 0 16 C0 10.72 0 5.44 0 0 Z " fill="#474F4F" transform="translate(230,140)"/>
<path d="M0 0 C29.04 0 58.08 0 88 0 C88 3.3 88 6.6 88 10 C97.57 10 107.14 10 117 10 C117 15.28 117 20.56 117 26 C121.62 26 126.24 26 131 26 C131 30.29 131 34.58 131 39 C132.60681641 38.98259766 132.60681641 38.98259766 134.24609375 38.96484375 C135.64322743 38.95546701 137.04036299 38.94636669 138.4375 38.9375 C139.14455078 38.92912109 139.85160156 38.92074219 140.58007812 38.91210938 C142.38693559 38.90346412 144.19387603 38.94779989 146 39 C147 40 147 40 147.09765625 43.16015625 C147.08025391 45.09181641 147.08025391 45.09181641 147.0625 47.0625 C147.05347656 48.35285156 147.04445312 49.64320312 147.03515625 50.97265625 C147.01775391 52.47119141 147.01775391 52.47119141 147 54 C151.29 54.33 155.58 54.66 160 55 C160 83.05 160 111.1 160 140 C159.67 140 159.34 140 159 140 C159 120.86 159 101.72 159 82 C154.71 82 150.42 82 146 82 C146 73.42 146 64.84 146 56 C140.72 56 135.44 56 130 56 C130 50.72 130 45.44 130 40 C120.43 40 110.86 40 101 40 C101 35.71 101 31.42 101 27 C96.71 27 92.42 27 88 27 C88 21.72 88 16.44 88 11 C59.29 11 30.58 11 1 11 C1 16.28 1 21.56 1 27 C-8.57 27 -18.14 27 -28 27 C-28 36.57 -28 46.14 -28 56 C-37.57 56 -47.14 56 -57 56 C-57 64.58 -57 73.16 -57 82 C-57.33 82 -57.66 82 -58 82 C-58 67.81 -58 53.62 -58 39 C-52.72 39 -47.44 39 -42 39 C-42 34.71 -42 30.42 -42 26 C-37.71 26 -33.42 26 -29 26 C-29 20.72 -29 15.44 -29 10 C-19.43 10 -9.86 10 0 10 C0 6.7 0 3.4 0 0 Z " fill="#542F2C" transform="translate(84,0)"/>
<path d="M0 0 C4.62 0 9.24 0 14 0 C14 5.28 14 10.56 14 16 C28.52 16 43.04 16 58 16 C58 10.72 58 5.44 58 0 C72.19 0 86.38 0 101 0 C101 5.28 101 10.56 101 16 C91.43 16 81.86 16 72 16 C72 20.29 72 24.58 72 29 C67.71 29 63.42 29 59 29 C59 34.28 59 39.56 59 45 C63.29 45 67.58 45 72 45 C72 49.29 72 53.58 72 58 C81.24 58 90.48 58 100 58 C100 62.29 100 66.58 100 71 C86.47 71 72.94 71 59 71 C59 66.71 59 62.42 59 58 C53.72 58 48.44 58 43 58 C43 53.71 43 49.42 43 45 C33.43 45 23.86 45 14 45 C14 49.29 14 53.58 14 58 C13.67 58 13.34 58 13 58 C13 48.43 13 38.86 13 29 C8.71 29 4.42 29 0 29 C0 19.43 0 9.86 0 0 Z " fill="#7A7A83" transform="translate(13,140)"/>
<path d="M0 0 C3.96 0 7.92 0 12 0 C12 29.37 12 58.74 12 89 C8.04 89 4.08 89 0 89 C0 98.57 0 108.14 0 118 C-4.29 118 -8.58 118 -13 118 C-13 122.29 -13 126.58 -13 131 C-18.28 131 -23.56 131 -29 131 C-29 136.28 -29 141.56 -29 147 C-33.62 147 -38.24 147 -43 147 C-43 141.72 -43 136.44 -43 131 C-38.71 131 -34.42 131 -30 131 C-30 126.38 -30 121.76 -30 117 C-24.72 117 -19.44 117 -14 117 C-14 107.43 -14 97.86 -14 88 C-9.71 88 -5.42 88 -1 88 C-1.00580078 86.26983643 -1.01160156 84.53967285 -1.01757812 82.75708008 C-1.05949555 64.3942656 -0.84099687 46.04754951 -0.5 27.6875 C-0.45129627 24.97722283 -0.40337508 22.266932 -0.35546875 19.55664062 C-0.23966392 13.03770917 -0.12074903 6.51884167 0 0 Z " fill="#2F2F2F" transform="translate(244,81)"/>
<path d="M0 0 C4.62 0 9.24 0 14 0 C14 5.28 14 10.56 14 16 C28.52 16 43.04 16 58 16 C58 25.57 58 35.14 58 45 C43.48 45 28.96 45 14 45 C14 49.29 14 53.58 14 58 C13.67 58 13.34 58 13 58 C13 48.43 13 38.86 13 29 C8.71 29 4.42 29 0 29 C0 19.43 0 9.86 0 0 Z " fill="#474E4E" transform="translate(13,140)"/>
<path d="M0 0 C0.33 0 0.66 0 1 0 C1 4.29 1 8.58 1 13 C5.29 13 9.58 13 14 13 C14 18.28 14 23.56 14 29 C23.57 29 33.14 29 43 29 C43 33.29 43 37.58 43 42 C71.38 42 99.76 42 129 42 C129 37.71 129 33.42 129 29 C138.57 29 148.14 29 158 29 C158 23.72 158 18.44 158 13 C162.62 13 167.24 13 172 13 C172 13.33 172 13.66 172 14 C167.71 14 163.42 14 159 14 C159 23.57 159 33.14 159 43 C110.82 43 62.64 43 13 43 C13 38.71 13 34.42 13 30 C8.71 30 4.42 30 0 30 C0 20.1 0 10.2 0 0 Z " fill="#605F6D" transform="translate(42,198)"/>
<path d="M0 0 C28.38 0 56.76 0 86 0 C86 4.29 86 8.58 86 13 C57.62 13 29.24 13 0 13 C0 8.71 0 4.42 0 0 Z " fill="#A0A0C0" transform="translate(85,227)"/>
<path d="M0 0 C5.28 0 10.56 0 16 0 C16 4.29 16 8.58 16 13 C19.96 13 23.92 13 28 13 C28 18.28 28 23.56 28 29 C23.71 29 19.42 29 15 29 C15 33.29 15 37.58 15 42 C10.05 42 5.1 42 0 42 C0 37.71 0 33.42 0 29 C-4.29 29 -8.58 29 -13 29 C-13 23.72 -13 18.44 -13 13 C-8.71 13 -4.42 13 0 13 C0 8.71 0 4.42 0 0 Z " fill="#F6F6F7" transform="translate(85,156)"/>
<path d="M0 0 C29.04 0 58.08 0 88 0 C88 3.3 88 6.6 88 10 C58.96 10 29.92 10 0 10 C0 6.7 0 3.4 0 0 Z " fill="#2D2F2F" transform="translate(84,0)"/>
<path d="M0 0 C9.57 0 19.14 0 29 0 C29 8.58 29 17.16 29 26 C19.43 26 9.86 26 0 26 C0 17.42 0 8.84 0 0 Z " fill="#F7F6F6" transform="translate(56,56)"/>
<path d="M0 0 C9.57 0 19.14 0 29 0 C29 4.29 29 8.58 29 13 C33.95 13 38.9 13 44 13 C44 17.29 44 21.58 44 26 C34.76 26 25.52 26 16 26 C16 21.71 16 17.42 16 13 C10.72 13 5.44 13 0 13 C0 8.71 0 4.42 0 0 Z " fill="#DACDEE" transform="translate(27,185)"/>
<path d="M0 0 C4.29 0 8.58 0 13 0 C13 18.48 13 36.96 13 56 C-0.86 56 -14.72 56 -29 56 C-29 60.95 -29 65.9 -29 71 C-34.28 71 -39.56 71 -45 71 C-45 65.72 -45 60.44 -45 55 C-40.05 55 -35.1 55 -30 55 C-30 50.71 -30 46.42 -30 42 C-29.67 42 -29.34 42 -29 42 C-29 46.29 -29 50.58 -29 55 C-15.47 55 -1.94 55 12 55 C12 50.71 12 46.42 12 42 C7.71 42 3.42 42 -1 42 C-1 37.71 -1 33.42 -1 29 C3.29 29 7.58 29 12 29 C12 23.72 12 18.44 12 13 C8.04 13 4.08 13 0 13 C0 8.71 0 4.42 0 0 Z " fill="#9A9BB6" transform="translate(101,156)"/>
<path d="M0 0 C14.19 0 28.38 0 43 0 C43 5.28 43 10.56 43 16 C28.81 16 14.62 16 0 16 C0 10.72 0 5.44 0 0 Z " fill="#4D4E4E" transform="translate(71,140)"/>
<path d="M0 0 C9.57 0 19.14 0 29 0 C29 4.29 29 8.58 29 13 C23.72 13 18.44 13 13 13 C13 17.29 13 21.58 13 26 C8.71 26 4.42 26 0 26 C0 17.42 0 8.84 0 0 Z " fill="#9E9EBE" transform="translate(201,185)"/>
<path d="M0 0 C13.53 0 27.06 0 41 0 C41 4.29 41 8.58 41 13 C27.47 13 13.94 13 0 13 C0 8.71 0 4.42 0 0 Z " fill="#77777F" transform="translate(72,198)"/>
<path d="M0 0 C9.57 0 19.14 0 29 0 C29 5.28 29 10.56 29 16 C19.43 16 9.86 16 0 16 C0 10.72 0 5.44 0 0 Z " fill="#F78A8A" transform="translate(56,82)"/>
<path d="M0 0 C9.57 0 19.14 0 29 0 C29 5.28 29 10.56 29 16 C19.43 16 9.86 16 0 16 C0 10.72 0 5.44 0 0 Z " fill="#F78D8D" transform="translate(56,40)"/>
<path d="M0 0 C9.57 0 19.14 0 29 0 C29 5.28 29 10.56 29 16 C19.43 16 9.86 16 0 16 C0 10.72 0 5.44 0 0 Z " fill="#2E2F2F" transform="translate(172,10)"/>
<path d="M0 0 C9.57 0 19.14 0 29 0 C29 5.28 29 10.56 29 16 C19.43 16 9.86 16 0 16 C0 10.72 0 5.44 0 0 Z " fill="#2D2F2F" transform="translate(55,10)"/>
<path d="M0 0 C9.24 0 18.48 0 28 0 C28 5.28 28 10.56 28 16 C18.76 16 9.52 16 0 16 C0 10.72 0 5.44 0 0 Z " fill="#A0A0C0" transform="translate(172,211)"/>
<path d="M0 0 C4.95 0 9.9 0 15 0 C15 8.58 15 17.16 15 26 C10.05 26 5.1 26 0 26 C0 17.42 0 8.84 0 0 Z " fill="#F78C8C" transform="translate(85,56)"/>
<path d="M0 0 C9.57 0 19.14 0 29 0 C29 4.29 29 8.58 29 13 C19.43 13 9.86 13 0 13 C0 8.71 0 4.42 0 0 Z " fill="#2E2E2E" transform="translate(172,228)"/>
<path d="M0 0 C9.57 0 19.14 0 29 0 C29 4.29 29 8.58 29 13 C19.43 13 9.86 13 0 13 C0 8.71 0 4.42 0 0 Z " fill="#2E2E2D" transform="translate(55,228)"/>
<path d="M0 0 C4.62 0 9.24 0 14 0 C14 8.58 14 17.16 14 26 C9.38 26 4.76 26 0 26 C0 17.42 0 8.84 0 0 Z " fill="#F78C8B" transform="translate(42,56)"/>
<path d="M0 0 C4.29 0 8.58 0 13 0 C13 8.58 13 17.16 13 26 C8.71 26 4.42 26 0 26 C0 17.42 0 8.84 0 0 Z " fill="#2E2F2F" transform="translate(231,55)"/>
<path d="M0 0 C0.33 0 0.66 0 1 0 C1 4.29 1 8.58 1 13 C14.86 13 28.72 13 43 13 C43 13.33 43 13.66 43 14 C29.14 14 15.28 14 1 14 C1 18.95 1 23.9 1 29 C-4.28 29 -9.56 29 -15 29 C-15 23.72 -15 18.44 -15 13 C-10.05 13 -5.1 13 0 13 C0 8.71 0 4.42 0 0 Z " fill="#9E9EBF" transform="translate(71,198)"/>
<path d="M0 0 C5.28 0 10.56 0 16 0 C16 4.95 16 9.9 16 15 C20.62 15 25.24 15 30 15 C30 15.33 30 15.66 30 16 C20.43 16 10.86 16 1 16 C1 20.29 1 24.58 1 29 C0.67 29 0.34 29 0 29 C0 19.43 0 9.86 0 0 Z " fill="#76757E" transform="translate(26,169)"/>
<path d="M0 0 C29.04 0 58.08 0 88 0 C88 0.99 88 1.98 88 3 C58.96 3 29.92 3 0 3 C0 2.01 0 1.02 0 0 Z " fill="#434940" transform="translate(84,253)"/>
<path d="M0 0 C5.28 0 10.56 0 16 0 C16 5.28 16 10.56 16 16 C10.72 16 5.44 16 0 16 C0 10.72 0 5.44 0 0 Z " fill="#76767E" transform="translate(214,169)"/>
<path d="M0 0 C5.28 0 10.56 0 16 0 C16 5.28 16 10.56 16 16 C10.72 16 5.44 16 0 16 C0 10.72 0 5.44 0 0 Z " fill="#952D1F" transform="translate(214,140)"/>
<path d="M0 0 C5.28 0 10.56 0 16 0 C16 5.28 16 10.56 16 16 C10.72 16 5.44 16 0 16 C0 10.72 0 5.44 0 0 Z " fill="#2E2F2F" transform="translate(26,39)"/>
<path d="M0 0 C2.31243792 -0.02685412 4.6249627 -0.04632841 6.9375 -0.0625 C8.22527344 -0.07410156 9.51304687 -0.08570313 10.83984375 -0.09765625 C14 0 14 0 15 1 C15.09909302 3.33160055 15.12970504 5.66629942 15.125 8 C15.12886719 9.918125 15.12886719 9.918125 15.1328125 11.875 C15 15 15 15 14 16 C11.46950598 16.07313567 8.96695163 16.09247527 6.4375 16.0625 C5.72658203 16.05798828 5.01566406 16.05347656 4.28320312 16.04882812 C2.52209987 16.03700864 0.76103964 16.01907263 -1 16 C-1.02692484 13.70839681 -1.04636124 11.41670454 -1.0625 9.125 C-1.07410156 7.84882812 -1.08570313 6.57265625 -1.09765625 5.2578125 C-1 2 -1 2 0 0 Z " fill="#2E2F2F" transform="translate(216,39)"/>
<path d="M0 0 C4.95 0 9.9 0 15 0 C15 5.28 15 10.56 15 16 C10.05 16 5.1 16 0 16 C0 10.72 0 5.44 0 0 Z " fill="#962D1F" transform="translate(27,140)"/>
<path d="M0 0 C9.57 0 19.14 0 29 0 C29 4.62 29 9.24 29 14 C23.72 14 18.44 14 13 14 C13 9.71 13 5.42 13 1 C8.71 1 4.42 1 0 1 C0 0.67 0 0.34 0 0 Z " fill="#912D20" transform="translate(172,26)"/>
<path d="M0 0 C0.33 0 0.66 0 1 0 C1 14.85 1 29.7 1 45 C5.29 45 9.58 45 14 45 C14 49.29 14 53.58 14 58 C9.38 58 4.76 58 0 58 C0 38.86 0 19.72 0 0 Z " fill="#9D2E21" transform="translate(13,82)"/>
<path d="M0 0 C4.29 0 8.58 0 13 0 C13 5.28 13 10.56 13 16 C8.71 16 4.42 16 0 16 C0 10.72 0 5.44 0 0 Z " fill="#2E2E2D" transform="translate(42,212)"/>
<path d="M0 0 C5.28 0 10.56 0 16 0 C16 4.29 16 8.58 16 13 C10.72 13 5.44 13 0 13 C0 8.71 0 4.42 0 0 Z " fill="#9D9DBC" transform="translate(214,185)"/>
<path d="M0 0 C5.28 0 10.56 0 16 0 C16 4.29 16 8.58 16 13 C10.72 13 5.44 13 0 13 C0 8.71 0 4.42 0 0 Z " fill="#797881" transform="translate(185,185)"/>
<path d="M0 0 C4.29 0 8.58 0 13 0 C13 5.28 13 10.56 13 16 C8.71 16 4.42 16 0 16 C0 10.72 0 5.44 0 0 Z " fill="#F73829" transform="translate(43,40)"/>
<path d="M0 0 C4.95 0 9.9 0 15 0 C15 4.29 15 8.58 15 13 C10.05 13 5.1 13 0 13 C0 8.71 0 4.42 0 0 Z " fill="#D7C7EF" transform="translate(27,185)"/>
<path d="M0 0 C4.95 0 9.9 0 15 0 C15 3.96 15 7.92 15 12 C10.05 12 5.1 12 0 12 C0 8.04 0 4.08 0 0 Z " fill="#F9F9F8" transform="translate(56,199)"/>
<path d="M0 0 C4.29 0 8.58 0 13 0 C13 4.29 13 8.58 13 13 C8.71 13 4.42 13 0 13 C0 8.71 0 4.42 0 0 Z " fill="#D7C7EF" transform="translate(201,185)"/>
<path d="M0 0 C4.29 0 8.58 0 13 0 C13 4.29 13 8.58 13 13 C8.71 13 4.42 13 0 13 C0 8.71 0 4.42 0 0 Z " fill="#F6F6F7" transform="translate(42,185)"/>
<path d="M0 0 C4.29 0 8.58 0 13 0 C13 4.29 13 8.58 13 13 C8.71 13 4.42 13 0 13 C0 8.71 0 4.42 0 0 Z " fill="#A1A1C0" transform="translate(100,185)"/>
<path d="M0 0 C4.29 0 8.58 0 13 0 C13 4.29 13 8.58 13 13 C8.71 13 4.42 13 0 13 C0 8.71 0 4.42 0 0 Z " fill="#A1A1C0" transform="translate(72,185)"/>
<path d="M0 0 C4.29 0 8.58 0 13 0 C13 4.29 13 8.58 13 13 C8.71 13 4.42 13 0 13 C0 8.71 0 4.42 0 0 Z " fill="#A1A1C0" transform="translate(72,156)"/>
<path d="M0 0 C4.29 0 8.58 0 13 0 C13 4.29 13 8.58 13 13 C8.71 13 4.42 13 0 13 C0 8.71 0 4.42 0 0 Z " fill="#942D1F" transform="translate(172,156)"/>
<path d="M0 0 C4.29 0 8.58 0 13 0 C13 4.29 13 8.58 13 13 C8.71 13 4.42 13 0 13 C0 8.71 0 4.42 0 0 Z " fill="#952D1F" transform="translate(230,127)"/>
<path d="M0 0 C4.29 0 8.58 0 13 0 C13 4.29 13 8.58 13 13 C8.71 13 4.42 13 0 13 C0 8.71 0 4.42 0 0 Z " fill="#2D2F2F" transform="translate(42,26)"/>
<path d="M0 0 C0.33 0 0.66 0 1 0 C1 4.29 1 8.58 1 13 C14.86 13 28.72 13 43 13 C43 13.33 43 13.66 43 14 C29.14 14 15.28 14 1 14 C1 18.95 1 23.9 1 29 C0.67 29 0.34 29 0 29 C0 24.05 0 19.1 0 14 C-4.95 14 -9.9 14 -15 14 C-15 13.67 -15 13.34 -15 13 C-10.05 13 -5.1 13 0 13 C0 8.71 0 4.42 0 0 Z " fill="#B7B1C8" transform="translate(71,198)"/>
</svg>
